<?xml version="1.0" encoding="UTF-8"?>
<svg version="1.1" xmlns="http://www.w3.org/2000/svg" width="2000" height="302">
<path d="M0 0 C19.49694282 -0.50592313 38.46413699 1.25593924 57.79295111 3.50484157 C61.98613247 3.98934094 66.18130857 4.45596329 70.37626266 4.92481804 C77.3879231 5.71086599 84.39825957 6.50786334 91.40772629 7.31323051 C101.2861892 8.44822996 111.16681231 9.56345236 121.04797912 10.67463195 C134.30341635 12.16620693 147.55823569 13.66357577 160.81050682 15.18304634 C162.23345103 15.34601876 163.6564537 15.50848182 165.07951927 15.67039108 C167.02477703 15.89186597 168.96978279 16.11555076 170.91477585 16.3393383 C172.54434125 16.52600138 172.54434125 16.52600138 174.20682716 16.71643543 C177.23416724 17.10215108 180.246069 17.60326354 183.2563591 18.10497856 C183.2563591 29.65497856 183.2563591 41.20497856 183.2563591 53.10497856 C167.4163591 53.10497856 151.5763591 53.10497856 135.2563591 53.10497856 C135.26796066 58.33599419 135.27956223 63.56700981 135.29151535 68.95654106 C135.29663974 72.31982359 135.30145472 75.68310114 135.30518723 79.04638481 C135.31110798 84.35580284 135.31802176 89.66520324 135.33179855 94.97460747 C135.42689316 132.5743818 135.42689316 132.5743818 134.2563591 151.10497856 C135.31959396 151.16032768 136.38282883 151.2156768 137.47828293 151.27270317 C141.47237426 151.48118949 145.46631395 151.69247015 149.46021652 151.90453911 C151.17957823 151.99545529 152.8989787 152.08564192 154.61841965 152.17504692 C163.84807384 152.65545056 173.06140316 153.14179623 182.2563591 154.10497856 C182.28116593 158.28588269 182.29926959 162.46674728 182.31129074 166.64770317 C182.31630475 168.06860921 182.32311762 169.48951012 182.33179855 170.91039848 C182.34399298 172.95834432 182.34961682 175.00622166 182.35401535 177.05419731 C182.36187057 178.90017509 182.36187057 178.90017509 182.36988449 180.78344536 C182.17426542 186.50688083 182.17426542 186.50688083 181.2563591 189.10497856 C179.31495285 190.42846489 179.31495285 190.42846489 176.6938591 191.43700981 C175.69121017 191.83436333 174.68856125 192.23171684 173.65552902 192.64111137 C172.53380295 193.06231255 171.41207687 193.48351372 170.2563591 193.91747856 C168.42748832 194.63286967 166.59862048 195.34826835 164.76983261 196.06387138 C162.73767728 196.85466572 160.70191259 197.63547442 158.66505051 198.41406059 C153.99188186 200.20203156 149.33266118 202.02486109 144.67432785 203.85107231 C137.70006071 206.58303384 130.72177885 209.30444829 123.7407341 212.01904106 C114.9631075 215.43394541 106.19783873 218.87912967 97.43958664 222.34338188 C95.18667516 223.23281473 92.93218067 224.11812031 90.67725754 225.0024395 C81.97947018 228.41862354 73.30810869 231.89206581 64.65917587 235.4303875 C60.23618051 237.23805002 55.80528132 239.02599067 51.37248707 240.80947113 C48.24090858 242.07075209 45.11400118 243.3415898 41.99607468 244.6362896 C38.48690008 246.0882332 34.96551034 247.50586875 31.43995285 248.91747856 C30.40278122 249.35623314 29.36560959 249.79498772 28.29700851 250.24703789 C23.11942757 252.2822955 18.95183732 253.36075553 13.37804794 252.82433891 C12.2374986 252.71707481 11.09694925 252.60981071 9.92183781 252.49929619 C3.37441533 251.79495051 -3.16649812 251.05256524 -9.70409012 250.26318169 C-11.2611049 250.07723519 -12.8181482 249.89152746 -14.37521744 249.70603752 C-18.56309892 249.20644868 -22.75057064 248.70350148 -26.93796682 248.19986343 C-31.33733239 247.67127978 -35.73705716 247.14570229 -40.13673782 246.61974907 C-47.51536467 245.73725202 -54.89374612 244.85272766 -62.27196121 243.96679497 C-71.73073855 242.83104974 -81.18990535 241.69858295 -90.64920235 240.56717491 C-98.80587778 239.59155423 -106.96238578 238.61453657 -115.11886072 237.63724136 C-117.73080199 237.32433073 -120.34276366 237.01159081 -122.95472717 236.69886589 C-127.06053849 236.20718625 -131.16624454 235.71463633 -135.27187157 235.22142029 C-136.77503806 235.0409599 -138.2782364 234.86076457 -139.78146935 234.68085861 C-141.83876404 234.4345889 -143.89593732 234.18732808 -145.95308304 233.93981743 C-147.10226652 233.80192551 -148.25145 233.66403358 -149.43545723 233.52196312 C-152.87660194 233.0882193 -156.31012689 232.59548056 -159.7436409 232.10497856 C-159.7436409 216.92497856 -159.7436409 201.74497856 -159.7436409 186.10497856 C-147.00863405 183.41988675 -134.26936059 180.77709721 -121.4936409 178.29247856 C-120.38198563 178.07374077 -119.27033035 177.85500298 -118.12498856 177.62963676 C-117.08648758 177.42942924 -116.0479866 177.22922173 -114.9780159 177.02294731 C-114.06245926 176.84529839 -113.14690262 176.66764946 -112.20360184 176.48461723 C-109.7436409 176.10497856 -109.7436409 176.10497856 -105.7436409 176.10497856 C-106.0736409 135.18497856 -106.4036409 94.26497856 -106.7436409 52.10497856 C-124.8936409 52.10497856 -143.0436409 52.10497856 -161.7436409 52.10497856 C-161.7436409 36.59497856 -161.7436409 21.08497856 -161.7436409 5.10497856 C-141.62673128 4.44824816 -121.50970838 3.79536083 -101.39245605 3.14922142 C-92.04849937 2.84898702 -82.70460104 2.54712211 -73.3608284 2.24120903 C-65.20243538 1.97410939 -57.0439437 1.71028241 -48.88532567 1.45014334 C-44.57848437 1.31271089 -40.2717037 1.17380491 -35.9650383 1.03095818 C-25.90052052 0.69800844 -15.83595943 0.3974662 -5.76882601 0.15525126 C-3.84578019 0.10751404 -1.92288236 0.05392115 0 0 Z M18.2563591 6.10497856 C18.2563591 19.30497856 18.2563591 32.50497856 18.2563591 46.10497856 C23.3735881 46.74463219 27.88028238 47.23361811 32.95093918 47.26319695 C34.23247375 47.27298576 35.51400833 47.28277458 36.83437729 47.29286003 C38.23154794 47.29876228 39.62871898 47.30457285 41.02589035 47.31030083 C42.51473885 47.31989328 44.00358471 47.32990414 45.49242783 47.34029961 C49.51453607 47.36720672 53.53665588 47.38829261 57.55880356 47.40830159 C61.76953331 47.43024927 65.98022801 47.45759478 70.19092941 47.48435783 C78.1556948 47.53416645 86.12047977 47.57914891 94.08528328 47.6223802 C103.15666156 47.67185402 112.22800464 47.72673436 121.29934883 47.78205979 C139.95165287 47.89569809 158.60399017 48.00257628 177.2563591 48.10497856 C177.45221263 44.12617628 177.6366458 40.146927 177.8188591 36.16747856 C177.87493332 35.03116997 177.93100754 33.89486137 177.98878098 32.72411919 C178.03712082 31.64452934 178.08546066 30.5649395 178.13526535 29.45263481 C178.1823967 28.45240288 178.22952805 27.45217094 178.27808762 26.42162895 C178.52718036 24.14231854 178.52718036 24.14231854 177.2563591 23.10497856 C175.31555047 22.80058377 173.36502353 22.55803842 171.41270065 22.3393383 C170.14249069 22.19492302 168.87228073 22.05050774 167.56357956 21.90171623 C166.14266021 21.74469268 164.72173091 21.58775909 163.30079269 21.4309063 C161.81444366 21.26363945 160.32813678 21.09599761 158.84186935 20.92800713 C154.79245289 20.47149929 150.7424337 20.02056063 146.69226408 19.57079005 C142.45646244 19.09968318 138.22114868 18.62422748 133.98575974 18.14942741 C126.86553052 17.35194991 119.74490253 16.5581106 112.62403488 15.76635551 C104.39784487 14.85165282 96.17232882 13.93107228 87.94714868 13.00733608 C80.03623667 12.11904817 72.12484165 11.23513415 64.21322632 10.35313416 C60.84721381 9.97779722 57.48138099 9.60090397 54.11568451 9.22274399 C50.1451223 8.7768109 46.17415146 8.33470866 42.2028389 7.89550972 C40.74787682 7.73398344 39.29305869 7.57115425 37.83840179 7.40690231 C35.84664246 7.1822253 33.85429132 6.96281355 31.8619194 6.74363518 C30.19219605 6.55753764 30.19219605 6.55753764 28.48874092 6.36768055 C25.08803565 6.09129859 21.66827694 6.10497856 18.2563591 6.10497856 Z M-45.7436409 52.10497856 C-45.7436409 99.62497856 -45.7436409 147.14497856 -45.7436409 196.10497856 C-39.3199689 195.34227721 -39.3199689 195.34227721 -33.11648941 194.06063652 C-32.29055692 193.85378636 -31.46462442 193.64693621 -30.61366367 193.43381786 C-29.73447364 193.2084796 -28.8552836 192.98314135 -27.94945145 192.75097466 C-26.99838862 192.5113132 -26.0473258 192.27165174 -25.06744289 192.02472782 C-21.9205763 191.23051472 -18.77548476 190.4294952 -15.63035965 189.62841606 C-13.40098162 189.06427919 -11.17149736 188.50056195 -8.9419136 187.93723869 C-2.99551266 186.43356521 2.94938183 184.92401584 8.89398956 183.41327095 C15.00456106 181.86139276 21.11649642 180.3149051 27.22828293 178.76782036 C40.2020219 175.48267901 53.17380913 172.1898804 66.14510727 168.89511681 C70.78977137 167.71555085 75.43467613 166.53693397 80.07960129 165.35839653 C96.14081605 161.28292831 112.20035909 157.20095072 128.2563591 153.10497856 C129.30053259 141.69388131 129.38735209 130.37342591 129.35401535 118.92529106 C129.35214573 117.01715952 129.3507244 115.1090275 129.34972763 113.20089531 C129.34594527 108.22636354 129.33615256 103.25186188 129.32502365 98.27734184 C129.31471648 93.18213114 129.31021025 88.08691548 129.30518723 82.99169731 C129.2945256 73.02944464 129.2775019 63.06721412 129.2563591 53.10497856 C104.48576418 52.25930726 79.72301176 52.00637455 54.93995285 52.00732231 C53.62396669 52.00733301 52.30798054 52.00734371 50.95211601 52.00735474 C40.19934352 52.01031178 29.44663134 52.02769659 18.6938591 52.04247856 C-2.5705159 52.06310356 -23.8348909 52.08372856 -45.7436409 52.10497856 Z M168.89747238 161.95898247 C167.89069317 162.25775339 167.89069317 162.25775339 166.86357498 162.56256008 C165.38661265 163.00105853 163.90983958 163.44019481 162.43322754 163.87987137 C160.03693843 164.5933717 157.64016547 165.30522536 155.24326706 166.01667595 C151.77420475 167.04656606 148.30535535 168.07716878 144.83668137 169.10836601 C135.63635579 171.84343582 126.43494504 174.57484567 117.2329216 177.30419731 C115.81822208 177.72384475 115.81822208 177.72384475 114.37494278 178.15196991 C100.3306075 182.31687101 86.27761364 186.45140169 72.2172966 190.56200981 C70.4616082 191.07553256 68.70592173 191.58906195 66.95023727 192.10259819 C59.40643467 194.3086287 51.86196987 196.51233319 44.31548119 198.7091589 C41.23467867 199.60665192 38.1546191 200.50667414 35.07473755 201.40732193 C33.64545866 201.82461113 32.21583462 202.24072011 30.78585052 202.65558624 C28.84613389 203.21839768 26.90765262 203.78546168 24.96924973 204.3527813 C23.34049911 204.82710846 23.34049911 204.82710846 21.67884445 205.31101799 C19.33281479 205.8779519 19.33281479 205.8779519 18.2563591 207.10497856 C18.16770702 209.98931676 18.14114614 212.84960014 18.15870285 215.73388481 C18.1601178 216.59811562 18.16153275 217.46234642 18.16299057 218.35276604 C18.16860671 221.12437148 18.18116191 223.89589736 18.1938591 226.66747856 C18.19887202 228.54182636 18.20343529 230.41617541 18.20753098 232.29052544 C18.21858138 236.895374 18.2358568 241.50016277 18.2563591 246.10497856 C26.41236728 243.8652946 34.20449834 240.86597462 42.04551315 237.72735405 C45.33108497 236.41236983 48.62043791 235.10695899 51.90954208 233.80084038 C53.72780415 233.07875262 55.54588376 232.35620527 57.36379623 231.63323784 C68.34414404 227.26867155 79.34529489 222.95715721 90.34510422 218.64193535 C109.11611991 211.27720397 127.8802577 203.89527216 146.6313591 196.47997856 C147.52132584 196.12808464 148.41129257 195.77619072 149.328228 195.41363335 C154.0038256 193.56459004 158.67838392 191.71295902 163.35194016 189.85876274 C165.09642754 189.16828075 166.84280489 188.48257865 168.58936691 187.79736137 C169.50298996 187.43739067 170.41661301 187.07741997 171.3579216 186.70654106 C172.10638351 186.41344048 172.85484543 186.12033989 173.62598801 185.81835747 C175.2625657 185.22022378 175.2625657 185.22022378 176.2563591 184.10497856 C176.34362133 182.3242661 176.36334951 180.54014716 176.35401535 178.75732231 C176.35079269 177.67773247 176.34757004 176.59814262 176.34424973 175.48583794 C176.33587082 174.34952934 176.32749191 173.21322075 176.3188591 172.04247856 C176.31209152 170.33221489 176.31209152 170.33221489 176.30518723 168.58740044 C176.29335658 165.75987505 176.2768732 162.93245216 176.2563591 160.10497856 C173.84397901 160.10497856 171.15965117 161.28622513 168.89747238 161.95898247 Z " fill="#B9B9B9" transform="translate(181.7436408996582,22.895021438598633)"/>
<path d="M0 0 C11.88 0 23.76 0 36 0 C38.1346875 4.4859375 38.1346875 4.4859375 40.3125 9.0625 C45.5863953 20.11236941 50.94443203 31.12064702 56.3125 42.125 C61.86696231 53.51342976 67.42134699 64.90180981 72.93515015 76.30999756 C73.7760738 78.04964393 74.61811423 79.78875035 75.46020508 81.52783203 C79.05825498 88.98081468 82.55425587 96.47544749 86 104 C88.12913926 99.74212079 88.12913926 99.74212079 90.25708008 95.48364258 C92.58551214 90.82307666 94.92123769 86.16624624 97.26171875 81.51171875 C103.16326168 69.76217844 109.01273178 57.99455884 114.65527344 46.11767578 C118.91179736 37.16026554 123.2335936 28.235084 127.5625 19.3125 C127.91842224 18.57850983 128.27434448 17.84451965 128.64105225 17.08828735 C129.65748505 14.99228105 130.67433498 12.89647781 131.69140625 10.80078125 C131.9961235 10.17264526 132.30084076 9.54450928 132.61479187 8.89733887 C134.05955673 5.92253329 135.52097057 2.95805886 137 0 C148.88 0 160.76 0 173 0 C173 42.24 173 84.48 173 128 C165.41 128 157.82 128 150 128 C149.67 95 149.34 62 149 28 C140.9253125 44.1184375 140.9253125 44.1184375 132.6875 60.5625 C131.01260498 63.90318604 129.33770996 67.24387207 127.61206055 70.68579102 C126.2446628 73.41652361 124.87765681 76.14744412 123.51171875 78.87890625 C123.14974585 79.60254427 122.78777294 80.32618229 122.41483116 81.07174873 C117.31505775 91.27435401 112.28959984 101.50570636 107.45011902 111.83509827 C107.06157242 112.66029465 106.67302582 113.48549103 106.27270508 114.33569336 C105.95062576 115.02658554 105.62854645 115.71747772 105.29670715 116.42930603 C103.31913565 120.34979889 101.13246764 124.16155825 99 128 C90.42 128 81.84 128 73 128 C71.38996094 124.70773437 69.77992188 121.41546875 68.12109375 118.0234375 C65.89425336 113.47345658 63.66606813 108.92413487 61.4375 104.375 C60.85864044 103.19327209 60.27978088 102.01154419 59.68338013 100.79400635 C50.20810657 81.45587012 40.62901543 62.17169231 30.94897461 42.93505859 C30.48575806 42.01285522 30.0225415 41.09065186 29.54528809 40.14050293 C28.68395703 38.42598075 27.82094716 36.71230052 26.95593262 34.99963379 C26.57851929 34.24807007 26.20110596 33.49650635 25.81225586 32.72216797 C25.48430527 32.0715036 25.15635468 31.42083923 24.81846619 30.75045776 C24 29 24 29 23 26 C22.67 59.66 22.34 93.32 22 128 C14.74 128 7.48 128 0 128 C0 85.76 0 43.52 0 0 Z " fill="#949494" transform="translate(452,166)"/>
<path d="M0 0 C7.92 0 15.84 0 24 0 C26.48458642 6.21146605 28.87046111 12.31910905 30.9609375 18.65234375 C31.22828705 19.45435211 31.4956366 20.25636047 31.77108765 21.08267212 C32.6423579 23.69986512 33.50895676 26.31857311 34.375 28.9375 C34.9859348 30.77923799 35.59693866 32.62095307 36.20800781 34.46264648 C37.81480279 39.31064039 39.4159729 44.16047173 41.01477051 49.0111084 C42.00478494 52.01451607 42.99604219 55.01751186 43.98730469 58.02050781 C45.60528499 62.92540774 47.21736593 67.83221261 48.82501221 72.74050903 C49.4369314 74.6073774 50.05015165 76.47381986 50.66473389 78.33981323 C51.52556305 80.95563169 52.38070967 83.57324247 53.234375 86.19140625 C53.48585297 86.95224518 53.73733093 87.71308411 53.99642944 88.49697876 C55.65348803 93.60734716 56.92076076 98.73791018 58 104 C58.66 104 59.32 104 60 104 C60.19837463 102.90799538 60.19837463 102.90799538 60.40075684 101.79393005 C60.96004931 99.18626733 61.68829082 96.80455742 62.58789062 94.29711914 C62.91392776 93.38328461 63.2399649 92.46945007 63.57588196 91.52792358 C63.93240341 90.54031036 64.28892487 89.55269714 64.65625 88.53515625 C65.03093918 87.48921295 65.40562836 86.44326965 65.79167175 85.3656311 C67.02398036 81.9298755 68.26176506 78.49612381 69.5 75.0625 C70.35267984 72.69053242 71.2052997 70.31854327 72.05786133 67.9465332 C80.2293686 45.24496489 88.58622124 22.61270374 97 0 C105.58 0 114.16 0 123 0 C123.99515625 2.75472656 124.9903125 5.50945312 126.015625 8.34765625 C130.23197089 20.01645675 134.45470353 31.68294276 138.6784668 43.34906006 C139.80477437 46.46065898 140.93060292 49.57243032 142.05617142 52.68429661 C144.58630022 59.6792923 147.11955603 66.6731461 149.65563965 73.66598511 C150.55319527 76.14229077 151.44975827 78.61895644 152.34533691 81.09597778 C153.60260016 84.57275563 154.86336519 88.04824404 156.125 91.5234375 C156.50340027 92.57227615 156.88180054 93.62111481 157.27166748 94.70173645 C157.61772034 95.65271713 157.96377319 96.60369781 158.3203125 97.58349609 C158.62211426 98.41658295 158.92391602 99.2496698 159.23486328 100.10800171 C159.84784994 101.9779933 159.84784994 101.9779933 161 103 C170.77420898 73.79670272 180.48433683 44.5748928 189.95977783 15.27311707 C191.61138949 10.17188222 193.30422882 5.08731354 195 0 C203.25 0 211.5 0 220 0 C216.62499217 12.37502872 216.62499217 12.37502872 214.90966797 17.42211914 C214.52372971 18.56294952 214.13779144 19.70377991 213.74015808 20.87918091 C213.32832779 22.08565277 212.9164975 23.29212463 212.4921875 24.53515625 C212.0489366 25.84144651 211.60597662 27.14783552 211.1632843 28.45431519 C209.98173946 31.93864379 208.79620389 35.42160171 207.60979843 38.9042778 C206.37606358 42.52795721 205.14586164 46.15283565 203.9152832 49.77758789 C201.91600394 55.66521219 199.91452909 61.55208581 197.91162109 67.43847656 C195.20202901 75.40227524 192.50058382 83.36881507 189.80078125 91.3359375 C188.63249633 94.78123758 187.46395676 98.22645111 186.29522705 101.67160034 C185.55835487 103.84411261 184.82182178 106.01673993 184.08563232 108.18948364 C183.07283039 111.17758779 182.05817838 114.16505691 181.04296875 117.15234375 C180.5976757 118.46789749 180.5976757 118.46789749 180.14338684 119.81002808 C179.87330307 120.60353668 179.6032193 121.39704529 179.32495117 122.21459961 C179.09152512 122.9023497 178.85809906 123.59009979 178.61759949 124.2986908 C178 126 178 126 177 128 C167.1 128 157.2 128 147 128 C143.77194682 120.25267237 140.6603464 112.5637448 137.8125 104.68359375 C137.43253372 103.63972 137.05256744 102.59584625 136.66108704 101.52033997 C135.8537477 99.30170574 135.04760302 97.08263646 134.24258423 94.86315918 C132.14009679 89.06684757 130.02871016 83.27377866 127.91796875 77.48046875 C127.49944138 76.33111847 127.080914 75.18176819 126.64970398 73.99758911 C122.90956623 63.73386609 119.12431294 53.48729493 115.3125 43.25 C115.0347876 42.50394501 114.7570752 41.75789001 114.47094727 40.98922729 C112.98266195 36.99205909 111.49243406 32.99562143 110 29 C103.95459503 44.2817918 98.28439508 59.6968916 92.625 75.125 C90.82656718 80.02382239 89.02705938 84.92224836 87.2265625 89.8203125 C86.79112122 91.00506165 86.35567993 92.18981079 85.90704346 93.41046143 C81.65668425 104.96001006 77.33377906 116.48150373 73 128 C63.1 128 53.2 128 43 128 C38.50028421 116.75071052 38.50028421 116.75071052 36.79614258 111.69140625 C36.41028488 110.5504953 36.02442719 109.40958435 35.62687683 108.23410034 C35.22020279 107.02247223 34.81352875 105.81084412 34.39453125 104.5625 C33.95320732 103.25464235 33.511616 101.9468749 33.06977844 100.63919067 C31.89105906 97.14847476 30.715624 93.65666177 29.5409317 90.16458893 C27.57536722 84.32376802 25.6042576 78.48481342 23.63418579 72.64551163 C22.88526281 70.42537145 22.13672359 68.2051021 21.38818359 65.98483276 C18.20503364 56.54701539 14.99714386 47.11801979 11.76953125 37.6953125 C10.97354952 35.36849024 10.17756964 33.04166734 9.3815918 30.71484375 C8.26026614 27.4377459 7.1374615 24.16119458 6.00991821 20.88623047 C4.98443519 17.90726035 3.9643334 14.92649804 2.9453125 11.9453125 C2.49228508 10.63749313 2.49228508 10.63749313 2.03010559 9.30325317 C1.75994125 8.50982513 1.48977692 7.71639709 1.21142578 6.89892578 C0.97577911 6.2133963 0.74013245 5.52786682 0.49734497 4.82156372 C0 3 0 3 0 0 Z " fill="#DBDCDD" transform="translate(1192,166)"/>
<path d="M0 0 C11.00574063 -0.04651739 22.01145753 -0.08196728 33.01727676 -0.10362434 C38.12874089 -0.11402315 43.24013732 -0.12811041 48.3515625 -0.15087891 C53.29232185 -0.17274729 58.23301644 -0.18459791 63.1738205 -0.18975449 C65.05068734 -0.19342527 66.92755098 -0.20059277 68.80438995 -0.21146011 C101.3972843 -0.39252718 101.3972843 -0.39252718 112.23828125 10.18359375 C119.60319277 19.22581431 120.09150171 28.77791082 119 40 C116.83378094 49.39127305 109.86208982 55.98376523 102 61 C103.07378906 61.47308594 104.14757812 61.94617187 105.25390625 62.43359375 C114.72043438 66.76654305 121.61814498 70.50808029 126.0703125 80.37109375 C129.40945472 89.77183198 129.04351189 99.28792416 125.25390625 108.46484375 C120.71981873 117.63189297 113.98865318 123.4242174 104.3125 126.8125 C97.78573511 128.84059079 91.46505962 129.1419351 84.68994141 129.11352539 C83.77222961 129.11367142 82.85451782 129.11381744 81.90899658 129.1139679 C78.88982745 129.11327384 75.87072079 129.10550523 72.8515625 129.09765625 C70.75263503 129.09579027 68.65370712 129.09436722 66.55477905 129.09336853 C61.04090158 129.08955754 55.52705062 129.07973938 50.01318359 129.06866455 C44.38249063 129.05841992 38.75179336 129.05386437 33.12109375 129.04882812 C22.08071755 129.03811582 11.04036098 129.02105645 0 129 C0.5080004 120.58331224 1.25565099 112.31117091 2.62890625 103.9921875 C2.94482479 101.99611959 3.26057502 100.00002504 3.57617188 98.00390625 C4.06901423 94.93192922 4.56486148 91.86047721 5.06420898 88.78955078 C5.55207949 85.77497659 6.02850537 82.75874965 6.50390625 79.7421875 C6.65388565 78.84184784 6.80386505 77.94150818 6.95838928 77.0138855 C8.66042392 66.1384156 8.12341788 55.94741591 6.25 45.13671875 C6.07243164 44.06049759 5.89486328 42.98427643 5.71191406 41.8754425 C5.1503336 38.47787761 4.57620479 35.08261269 4 31.6875 C3.42523166 28.27433077 2.85335456 24.86075501 2.28808594 21.44599915 C1.93782466 19.33254225 1.58199198 17.21999868 1.21972656 15.10856628 C1.05956055 14.1467897 0.89939453 13.18501312 0.734375 12.1940918 C0.59225586 11.35758591 0.45013672 10.52108002 0.30371094 9.65922546 C-0.06558167 6.42578146 -0.04699891 3.25150247 0 0 Z M25 19 C25.47641335 22.33856297 25.95303311 25.67709644 26.4296875 29.015625 C26.56334717 29.95229004 26.69700684 30.88895508 26.8347168 31.85400391 C27.40255992 43.73647913 27.40255992 43.73647913 31 54 C32.45592434 54.10864896 33.91703063 54.14902572 35.37695312 54.16113281 C36.77476013 54.17554413 36.77476013 54.17554413 38.20080566 54.19024658 C39.21735229 54.19449646 40.23389893 54.19874634 41.28125 54.203125 C42.32390015 54.20882507 43.36655029 54.21452515 44.4407959 54.22039795 C46.65680928 54.22986951 48.87283689 54.23639044 51.08886719 54.24023438 C54.45793916 54.24987959 57.82638547 54.2808576 61.1953125 54.3125 C63.34895471 54.31903591 65.50260129 54.32428407 67.65625 54.328125 C69.15677917 54.3466452 69.15677917 54.3466452 70.68762207 54.36553955 C78.38990535 54.34138786 85.52951954 53.5086671 91.4375 48.1875 C94.85485556 44.34415829 95.8116102 40.69550819 96.375 35.625 C95.84514819 30.5030992 94.43497309 26.05174488 90.38671875 22.640625 C85.00880059 19.34948218 79.52614009 18.87200437 73.36181641 18.88647461 C71.74081528 18.88658791 71.74081528 18.88658791 70.08706665 18.88670349 C68.93685028 18.89186478 67.78663391 18.89702606 66.6015625 18.90234375 C64.81641739 18.90446617 64.81641739 18.90446617 62.99520874 18.90663147 C59.20511328 18.9122158 55.41507752 18.92476549 51.625 18.9375 C49.0507821 18.94251702 46.47656328 18.94707958 43.90234375 18.95117188 C37.60154223 18.96218011 31.30077538 18.97890269 25 19 Z M31 72 C29.8208203 77.13581669 28.72995819 82.24973891 27.9296875 87.4609375 C27.75566406 88.59144531 27.58164062 89.72195312 27.40234375 90.88671875 C27.22832031 92.03785156 27.05429687 93.18898438 26.875 94.375 C26.69324219 95.54933594 26.51148438 96.72367188 26.32421875 97.93359375 C25.35315402 103.94105289 25.35315402 103.94105289 25 110 C33.05871008 110.06978677 41.117292 110.12295574 49.17623043 110.15543652 C52.91910991 110.17103274 56.66178127 110.19215898 60.40454102 110.22631836 C64.02259402 110.25912954 67.64044797 110.27689836 71.25863838 110.28463173 C72.63281954 110.29013651 74.00699091 110.30088513 75.38108635 110.31719017 C88.04069891 110.5853479 88.04069891 110.5853479 99.15625 105.24609375 C99.5996875 104.64925781 100.043125 104.05242187 100.5 103.4375 C100.9640625 102.83808594 101.428125 102.23867187 101.90625 101.62109375 C105.10223572 96.88418634 104.48867364 91.52413676 104 86 C102.50474713 80.70470957 98.91108363 77.82551997 94.390625 75.04296875 C86.88416076 71.76808975 79.68622115 71.73025902 71.625 71.8046875 C69.8773938 71.80893234 69.8773938 71.80893234 68.09448242 71.81326294 C64.39621438 71.82440193 60.69819408 71.84949521 57 71.875 C54.48307643 71.8850379 51.96614904 71.89416234 49.44921875 71.90234375 C43.29939553 71.9243207 37.14971547 71.95773556 31 72 Z " fill="#D86A4A" transform="translate(448,2)"/>
<path d="M0 0 C12.1275 -0.04125 24.255 -0.0825 36.75 -0.125 C42.45941895 -0.15231201 42.45941895 -0.15231201 48.28417969 -0.18017578 C52.99072266 -0.18920898 52.99072266 -0.18920898 55.2053833 -0.19088745 C56.72736791 -0.19392597 58.24934821 -0.2008909 59.77130127 -0.21115112 C77.1549977 -0.32231838 93.61821539 0.73875825 106.80078125 13.390625 C115.16148821 23.31061123 116.73313396 33.45526342 116 46 C114.23840434 56.92786463 107.68147999 64.51782827 99 71 C92.638482 75.23196933 85.39492375 76.51199705 78 78 C82.8112446 84.73574245 88.19050649 90.9013963 93.62890625 97.12890625 C97.56325382 101.63536003 101.42600039 106.19997395 105.27734375 110.77734375 C107.2119766 113.075208 109.16534219 115.35571953 111.12890625 117.62890625 C111.89630127 118.52198486 111.89630127 118.52198486 112.67919922 119.43310547 C113.6652246 120.58001035 114.65498881 121.7237142 115.64892578 122.86376953 C119 126.77519939 119 126.77519939 119 129 C93.03500786 131.42389648 93.03500786 131.42389648 86.85546875 126.33984375 C84.21835595 123.48376341 82.1754399 120.28424181 80.20800781 116.94140625 C78.24125868 113.78061621 75.7746045 111.09205094 73.3125 108.3125 C72.40021503 107.23988772 71.49128846 106.16440891 70.5859375 105.0859375 C70.15120117 104.56870117 69.71646484 104.05146484 69.26855469 103.51855469 C67.30815129 101.17180543 65.37161132 98.80593807 63.4375 96.4375 C62.69371094 95.56222656 61.94992187 94.68695313 61.18359375 93.78515625 C59 91 59 91 57.09765625 87.68359375 C54.76742691 83.67676666 54.76742691 83.67676666 49 79 C40.75 78.67 32.5 78.34 24 78 C24 94.83 24 111.66 24 129 C16.08 129 8.16 129 0 129 C0 86.43 0 43.86 0 0 Z M24 21 C24 33.21 24 45.42 24 58 C30.95635071 58.06907741 37.91149883 58.12875129 44.86791992 58.16479492 C47.23156784 58.17982941 49.59518811 58.20026242 51.95874023 58.22631836 C55.36709441 58.26293645 58.77507792 58.27978031 62.18359375 58.29296875 C63.23083115 58.30845261 64.27806854 58.32393646 65.35704041 58.33988953 C74.39853415 58.34193753 81.93111818 56.87642719 88.625 50.5234375 C92.35688278 46.38868101 92.44812013 41.85888044 92.3046875 36.49609375 C91.7138824 31.65603657 89.91770413 28.51294281 86.09375 25.49609375 C80.9563673 22.13187485 76.93022939 20.87152857 70.77246094 20.88647461 C69.73168396 20.88655014 68.69090698 20.88662567 67.61859131 20.88670349 C66.50179993 20.89186478 65.38500854 20.89702606 64.234375 20.90234375 C63.08584045 20.9037587 61.93730591 20.90517365 60.75396729 20.90663147 C57.08595169 20.91222857 53.41799715 20.92478056 49.75 20.9375 C47.26302171 20.94251537 44.77604247 20.94707822 42.2890625 20.95117188 C36.19266589 20.9613461 30.09640129 20.98092225 24 21 Z " fill="#D86A4A" transform="translate(1279,2)"/>
<path d="M0 0 C13.75079197 15.68072769 18.30498791 33.03763656 17.20703125 53.54589844 C15.81131154 70.09044392 8.35968172 84.8897943 -4 96 C-23.68638593 111.51229803 -47.84614091 115.13783632 -72.1875 112.3125 C-91.39649168 109.16240159 -108.29445764 99.74651151 -119.9375 84.0625 C-127.49518053 72.4494787 -130.39200904 60.43123392 -130.3125 46.75 C-130.30686035 45.73510498 -130.3012207 44.72020996 -130.29541016 43.67456055 C-130.0216435 26.7240676 -124.75983426 12.43474649 -113 0 C-83.49407655 -28.4304302 -29.62998401 -28.48116396 0 0 Z M-97.24609375 16.79296875 C-106.5913276 28.55256146 -107.15498206 42.63202319 -106 57 C-105.20195281 61.06278568 -103.99436209 64.38289609 -102 68 C-101.56429688 68.7940625 -101.12859375 69.588125 -100.6796875 70.40625 C-94.26823939 80.91682067 -85.33718329 86.58609461 -73.640625 89.97265625 C-56.22675597 94.13263607 -39.44833221 92.36122818 -24 83 C-15.48479004 77.46349466 -9.70342785 68.03120052 -7.43359375 58.21875 C-5.22456143 41.8201677 -7.38966944 28.48044075 -17.453125 15.0625 C-24.65861495 6.9108346 -36.86738067 1.68432547 -47.5793457 0.78295898 C-66.73353607 -0.03738142 -83.42272265 2.18766959 -97.24609375 16.79296875 Z " fill="#D8D8D9" transform="translate(1547,184)"/>
<path d="M0 0 C12.931875 -0.0825 25.86375 -0.165 39.1875 -0.25 C43.24571045 -0.28641602 47.3039209 -0.32283203 51.48510742 -0.36035156 C56.5045166 -0.37841797 56.5045166 -0.37841797 58.86665344 -0.3817749 C60.48946034 -0.38785067 62.11225109 -0.40177803 63.73493958 -0.42230225 C79.10826567 -0.60674616 93.3562016 1.29216817 105.25390625 12.03515625 C112.71895626 19.83015323 115.58042448 27.98092401 116.09765625 38.69140625 C115.7604551 50.11578105 111.37346054 59.52337507 103.1328125 67.3359375 C95.43958766 73.33834369 86.43450523 76.09302554 77 78 C77.54527344 78.59425781 78.09054687 79.18851562 78.65234375 79.80078125 C82.63324967 84.17637527 86.52815798 88.5887119 90.25 93.1875 C93.87263738 97.6621514 97.5949124 102.03379267 101.375 106.375 C105.70937115 111.35655895 110.03290727 116.3462321 114.3125 121.375 C114.78671387 121.92849121 115.26092773 122.48198242 115.74951172 123.05224609 C119 126.88330939 119 126.88330939 119 128 C92.02148902 130.42497481 92.02148902 130.42497481 85.71875 125.26953125 C83.06627204 122.4080751 81.01502629 119.21450447 79.08398438 115.83349609 C77.49785143 113.1506451 75.52171959 110.86456364 73.5 108.5 C72.7884375 107.6234375 72.076875 106.746875 71.34375 105.84375 C69.61168815 103.74218162 67.86577784 101.66111581 66.09375 99.59375 C65.5881958 99.00360107 65.0826416 98.41345215 64.56176758 97.80541992 C63.52112504 96.60242608 62.47143266 95.40720128 61.4128418 94.2199707 C58.96445391 91.44840637 56.96019693 88.93036523 55.11328125 85.69921875 C53.1450584 82.06097762 53.1450584 82.06097762 48 78 C39.75 77.67 31.5 77.34 23 77 C23 93.83 23 110.66 23 128 C15.41 128 7.82 128 0 128 C0 85.76 0 43.52 0 0 Z M23 20 C23 32.21 23 44.42 23 57 C30.40188274 57.06900927 37.8026413 57.12870429 45.20458984 57.16479492 C47.72057892 57.17984619 50.23654192 57.20029181 52.75244141 57.22631836 C56.37669325 57.26286182 60.000597 57.27976353 63.625 57.29296875 C64.74302002 57.30845261 65.86104004 57.32393646 67.01293945 57.33988953 C74.29215457 57.34144486 80.25180664 56.78382114 86.27734375 52.30859375 C90.19225994 47.89625291 92.02523821 44.41815383 92.19921875 38.45703125 C91.75585175 32.98883826 90.28571596 28.81266298 86.125 25.125 C78.14415035 19.69802224 70.04012205 19.85600533 60.6953125 19.90234375 C59.61619598 19.9037587 58.53707947 19.90517365 57.42526245 19.90663147 C53.99181298 19.91221156 50.55842964 19.92476045 47.125 19.9375 C44.79166761 19.94251757 42.4583342 19.94708003 40.125 19.95117188 C34.41662093 19.96132191 28.70838416 19.98090132 23 20 Z " fill="#CBCBCC" transform="translate(1585,166)"/>
<path d="M0 0 C5.44214685 5.18522146 9.86304601 12.32120704 11.5 19.6875 C11.5 21.9975 11.5 24.3075 11.5 26.6875 C3.91 26.6875 -3.68 26.6875 -11.5 26.6875 C-13.15 23.3875 -14.8 20.0875 -16.5 16.6875 C-24.73072616 8.27386882 -35.36617722 5.48959757 -46.8449707 5.35839844 C-48.09733521 5.36661621 -48.09733521 5.36661621 -49.375 5.375 C-50.68827271 5.38128418 -50.68827271 5.38128418 -52.02807617 5.38769531 C-62.4467333 5.56937675 -72.18376265 7.51116363 -79.875 15 C-82.64556463 19.58208765 -82.72967832 23.28646226 -81.875 28.5 C-80.83558199 31.75670434 -80.83558199 31.75670434 -78.4375 32.9375 C-77.468125 33.185 -76.49875 33.4325 -75.5 33.6875 C-74.15459874 34.16478444 -72.81049325 34.64572821 -71.46728516 35.12915039 C-66.39908761 36.82733811 -61.36935979 37.64699666 -56.0859375 38.37109375 C-55.11322906 38.51273453 -54.14052063 38.65437531 -53.13833618 38.80030823 C-49.02414925 39.39929592 -44.9073789 39.97946677 -40.79052734 40.55981445 C-0.32262378 46.30358344 -0.32262378 46.30358344 9.5 56.6875 C12.852325 62.13144658 15.14144561 67.2335209 15.5 73.6875 C15.603125 74.88375 15.70625 76.08 15.8125 77.3125 C15.64915132 86.64152434 12.06677472 96.05992181 5.5 102.6875 C-10.19732085 116.89628181 -31.68794817 119.45203429 -52.01611328 118.82373047 C-67.03762661 117.99986528 -81.40565569 113.82599641 -93.5 104.6875 C-94.53125 103.965625 -95.5625 103.24375 -96.625 102.5 C-103.8779284 96.17641618 -107.91332519 87.01110342 -109.5 77.6875 C-109.5 76.3675 -109.5 75.0475 -109.5 73.6875 C-101.58 73.6875 -93.66 73.6875 -85.5 73.6875 C-84.18 76.9875 -82.86 80.2875 -81.5 83.6875 C-77.44935373 90.54243985 -69.60623654 94.27654826 -62.1875 96.5 C-47.9890168 99.84081958 -30.5604308 100.10601676 -17.5 92.6875 C-13.76417174 90.07104675 -10.96537272 88.08361816 -9.5 83.6875 C-9.23806626 79.62752696 -9.11294424 76.75190333 -10.5 72.9375 C-20.18332646 62.04375773 -43.27302769 62.66738968 -57.01733398 60.96069336 C-73.1310094 58.94500305 -90.03982085 56.26574541 -101.5 43.6875 C-106.97999701 35.23851326 -107.2009045 26.51017595 -106.5 16.6875 C-104.15605936 6.11152689 -96.94164874 -0.94411546 -88.171875 -6.77734375 C-62.76547741 -21.37487921 -22.80150144 -18.34504101 0 0 Z " fill="#B1B1B1" transform="translate(1962.5,178.3125)"/>
<path d="M0 0 C36.63 0 73.26 0 111 0 C111 6.6 111 13.2 111 20 C82.95 20 54.9 20 26 20 C27.65 29.57 29.3 39.14 31 49 C31 50.65 31 52.3 31 54 C56.08 54 81.16 54 107 54 C107 60.6 107 67.2 107 74 C81.92 74 56.84 74 31 74 C30.67 77.63 30.34 81.26 30 85 C28.68 92.59 27.36 100.18 26 108 C54.38 108 82.76 108 112 108 C112 114.6 112 121.2 112 128 C75.04 128 38.08 128 0 128 C2.27426314 108.6687633 2.27426314 108.6687633 3.76171875 100.13671875 C4.07940134 98.24164117 4.39644034 96.34645562 4.71289062 94.45117188 C5.20016238 91.55632016 5.69185013 88.66247364 6.19458008 85.77026367 C6.68859846 82.91532207 7.16395845 80.05774721 7.63671875 77.19921875 C7.78872238 76.35203781 7.94072601 75.50485687 8.09733582 74.63200378 C9.82228919 63.99157709 7.91216004 53.59519715 6.15234375 43.06640625 C5.97619034 41.98544174 5.80003693 40.90447723 5.61854553 39.79075623 C5.06258573 36.38060117 4.50070769 32.97146496 3.9375 29.5625 C3.37098539 26.12850176 2.80590475 22.69430263 2.2457428 19.25926208 C1.89896222 17.13288009 1.5485646 15.00708394 1.19407654 12.88197327 C1.03713821 11.92004562 0.88019989 10.95811798 0.71850586 9.96704102 C0.57940292 9.1260939 0.44029999 8.28514679 0.29698181 7.41871643 C0 5 0 5 0 0 Z " fill="#A3A3A3" transform="translate(648,166)"/>
<path d="M0 0 C7.92 0 15.84 0 24 0 C24 17.82 24 35.64 24 54 C50.4 54 76.8 54 104 54 C104 36.18 104 18.36 104 0 C111.59 0 119.18 0 127 0 C127 42.57 127 85.14 127 129 C119.41 129 111.82 129 104 129 C104 111.18 104 93.36 104 75 C77.6 75 51.2 75 24 75 C24 92.82 24 110.64 24 129 C16.08 129 8.16 129 0 129 C0 86.43 0 43.86 0 0 Z " fill="#D86949" transform="translate(596,2)"/>
<path d="M0 0 C7.59 0 15.18 0 23 0 C23.33 31.02 23.66 62.04 24 94 C27.96 89.05 27.96 89.05 32 84 C33.47498113 82.18409225 34.95322899 80.37082238 36.4375 78.5625 C37.18902344 77.64597656 37.94054688 76.72945313 38.71484375 75.78515625 C39.46894531 74.86605469 40.22304687 73.94695312 41 73 C42.50028317 71.16689838 44.00028408 69.33356573 45.5 67.5 C81.5 23.5 81.5 23.5 83.73828125 20.765625 C85.27903713 18.8815919 86.8180299 16.99611588 88.35546875 15.109375 C89.12503906 14.16578125 89.89460938 13.2221875 90.6875 12.25 C91.71423828 10.98929688 91.71423828 10.98929688 92.76171875 9.703125 C93.50035156 8.81109375 94.23898437 7.9190625 95 7 C95.37995117 6.38310303 95.75990234 5.76620605 96.15136719 5.13061523 C98.37224117 1.86493975 99.85561742 0.22592621 103.82202148 -0.55712891 C107.19914549 -0.68924508 110.49997172 -0.61082256 113.875 -0.4375 C115.62296875 -0.39012695 115.62296875 -0.39012695 117.40625 -0.34179688 C120.27342891 -0.25954174 123.13540386 -0.14466052 126 0 C124.3738426 3.39121482 122.47416668 6.0373945 120.0625 8.9375 C119.26070312 9.90429688 118.45890625 10.87109375 117.6328125 11.8671875 C114.44497041 15.67001646 111.23219287 19.45176835 108.01782227 23.23217773 C104.63499166 27.22050013 101.35639158 31.28059075 98.1171875 35.38671875 C96.48514268 37.40117998 94.82909031 39.37269134 93.1328125 41.33203125 C92.63523437 41.90888672 92.13765625 42.48574219 91.625 43.08007812 C90.64890676 44.20741497 89.66739394 45.33008956 88.6796875 46.44726562 C86.0442899 49.49539072 84.01813948 52.08125387 83 56 C83.9359939 58.58514043 83.9359939 58.58514043 85.7421875 61.078125 C86.38824951 62.06143799 87.03431152 63.04475098 87.69995117 64.05786133 C88.41771729 65.11126709 89.1354834 66.16467285 89.875 67.25 C90.61300945 68.3615984 91.34906466 69.4744965 92.08325195 70.58862305 C93.61361812 72.90774554 95.15231205 75.2210076 96.69677734 77.53076172 C100.27812396 82.90362599 103.72434565 88.36306235 107.1875 93.8125 C111.05825638 99.87776471 114.94469576 105.93117614 118.89453125 111.9453125 C119.50337158 112.8736792 120.11221191 113.8020459 120.73950195 114.75854492 C121.88627842 116.50359805 123.03696718 118.24608844 124.19213867 119.9855957 C124.94781128 121.13547974 124.94781128 121.13547974 125.71875 122.30859375 C126.16154297 122.97689209 126.60433594 123.64519043 127.06054688 124.33374023 C128 126 128 126 128 128 C105.31212278 130.65657564 105.31212278 130.65657564 98.8671875 126.68603516 C95.30949808 122.95110577 93.33726939 118.3192075 91.26806641 113.64892578 C88.92903875 108.76281679 85.84287157 104.33355899 82.875 99.8125 C81.68968345 97.95374841 80.50732441 96.09310708 79.328125 94.23046875 C75.24308524 87.80460294 71.12747536 81.39867873 67 75 C63.38825082 77.72144038 60.56199605 80.52667533 57.75 84.0625 C56.96882813 85.03574219 56.18765625 86.00898438 55.3828125 87.01171875 C54.59648438 87.99785156 53.81015625 88.98398438 53 90 C48.20841859 95.90848028 43.36538389 101.76753231 38.4375 107.5625 C32.77001519 114.23041908 27.25162784 120.99782955 22 128 C14.74 128 7.48 128 0 128 C0 85.76 0 43.52 0 0 Z " fill="#BEBFBF" transform="translate(1723,166)"/>
<path d="M0 0 C9.9 0 19.8 0 30 0 C43 27.08333333 56 54.16666667 69 81.25 C69.49588623 82.28294189 69.99177246 83.31588379 70.50268555 84.38012695 C71.49422138 86.44613647 72.48527622 88.51237691 73.47583008 90.57885742 C76.10126381 96.05431697 78.7369684 101.52454296 81.38671875 106.98828125 C81.93908203 108.13039063 82.49144531 109.2725 83.06054688 110.44921875 C84.1225938 112.64471071 85.1875673 114.83879005 86.25585938 117.03125 C86.73216797 118.01738281 87.20847656 119.00351563 87.69921875 120.01953125 C88.12033936 120.88682861 88.54145996 121.75412598 88.9753418 122.64770508 C90 125 90 125 91 129 C82.75 129 74.5 129 66 129 C53 103.22033898 53 103.22033898 53 100 C27.92 100 2.84 100 -23 100 C-23.33 101.65 -23.66 103.3 -24 105 C-24.76977628 106.85112867 -25.59751359 108.67877816 -26.46875 110.484375 C-26.95730469 111.50144531 -27.44585938 112.51851563 -27.94921875 113.56640625 C-28.46097656 114.61699219 -28.97273438 115.66757813 -29.5 116.75 C-30.26763672 118.34908203 -30.26763672 118.34908203 -31.05078125 119.98046875 C-34.85040794 127.85040794 -34.85040794 127.85040794 -36 129 C-37.85369611 129.08737645 -39.71067541 129.10698153 -41.56640625 129.09765625 C-42.69111328 129.09443359 -43.81582031 129.09121094 -44.97460938 129.08789062 C-46.15861328 129.07951172 -47.34261719 129.07113281 -48.5625 129.0625 C-49.75037109 129.05798828 -50.93824219 129.05347656 -52.16210938 129.04882812 C-55.10812226 129.03699675 -58.05403681 129.02051287 -61 129 C-58.47764914 122.47145887 -55.72329143 116.13569452 -52.62109375 109.86328125 C-52.21254654 109.0295549 -51.80399933 108.19582855 -51.3830719 107.33683777 C-50.51677994 105.5698256 -49.6489071 103.80358768 -48.77954102 102.03808594 C-46.5112029 97.43125918 -44.2546407 92.81866375 -41.99609375 88.20703125 C-41.55518402 87.30763824 -41.11427429 86.40824524 -40.66000366 85.4815979 C-37.40442963 78.83778091 -34.18151356 72.17965912 -31 65.5 C-30.58274658 64.6241626 -30.16549316 63.7483252 -29.7355957 62.84594727 C-28.9129604 61.11813854 -28.09060892 59.39019464 -27.26855469 57.66210938 C-24.89757338 52.68651657 -22.51061606 47.71858797 -20.125 42.75 C-19.63604248 41.73083496 -19.14708496 40.71166992 -18.64331055 39.66162109 C-16.20370632 34.5789467 -13.75935177 29.49862604 -11.30517578 24.42297363 C-10.09939579 21.92920139 -8.89479039 19.43486234 -7.69012451 16.94055176 C-6.82811938 15.15731199 -5.96412667 13.37503345 -5.10009766 11.59277344 C-4.57851074 10.51286133 -4.05692383 9.43294922 -3.51953125 8.3203125 C-3.05651611 7.36398926 -2.59350098 6.40766602 -2.11645508 5.42236328 C-0.91996823 2.94307828 -0.91996823 2.94307828 0 0 Z M14 21 C2.66440442 44.99127546 2.66440442 44.99127546 -8.5 69.0625 C-9.19283081 70.56683594 -9.19283081 70.56683594 -9.8996582 72.1015625 C-10.52167114 73.46087891 -10.52167114 73.46087891 -11.15625 74.84765625 C-11.51525391 75.63148682 -11.87425781 76.41531738 -12.24414062 77.22290039 C-13.06523338 78.8315089 -13.06523338 78.8315089 -13 80 C5.48 80 23.96 80 43 80 C37.60762759 67.59419572 37.60762759 67.59419572 31.95703125 55.31640625 C31.62128586 54.60572495 31.28554047 53.89504364 30.93962097 53.16282654 C29.89939621 50.96169281 28.85619025 48.76199232 27.8125 46.5625 C26.42180707 43.62694882 25.03251961 40.69073715 23.64453125 37.75390625 C23.319617 37.06664459 22.99470276 36.37938293 22.65994263 35.67129517 C20.36809143 30.81135975 18.14885373 25.92515054 16 21 C15.34 21 14.68 21 14 21 Z " fill="#D86A4A" transform="translate(1462,2)"/>
<path d="M0 0 C9.57 0 19.14 0 29 0 C35.35061519 12.64899265 41.59974081 25.34530031 47.8125 38.0625 C48.54324738 39.55759094 48.54324738 39.55759094 49.28875732 41.08288574 C55.83515866 54.47895922 62.34536278 67.88992609 68.74169922 81.35839844 C70.68822716 85.44482302 72.65166711 89.52308685 74.61376953 93.60205078 C76.61999575 97.77447843 78.62057289 101.94960068 80.62060547 106.125 C81.92106293 108.83547558 83.22777713 111.54285848 84.53515625 114.25 C85.27379584 115.79149501 86.01210244 117.33314965 86.75 118.875 C87.08539795 119.5644873 87.4207959 120.25397461 87.76635742 120.96435547 C89.1356615 123.84177688 90 125.76962235 90 129 C81.75 129 73.5 129 65 129 C60.71 119.76 56.42 110.52 52 101 C27.25 100.67 2.5 100.34 -23 100 C-23.66 101.98 -24.32 103.96 -25 106 C-25.75656676 107.79891128 -26.53954567 109.58692758 -27.34765625 111.36328125 C-27.78787109 112.33201172 -28.22808594 113.30074219 -28.68164062 114.29882812 C-29.13732422 115.29333984 -29.59300781 116.28785156 -30.0625 117.3125 C-30.52205078 118.32634766 -30.98160156 119.34019531 -31.45507812 120.38476562 C-34.86872691 127.86872691 -34.86872691 127.86872691 -36 129 C-37.85369611 129.08737645 -39.71067541 129.10698153 -41.56640625 129.09765625 C-42.69111328 129.09443359 -43.81582031 129.09121094 -44.97460938 129.08789062 C-46.15861328 129.07951172 -47.34261719 129.07113281 -48.5625 129.0625 C-49.75037109 129.05798828 -50.93824219 129.05347656 -52.16210938 129.04882812 C-55.10812226 129.03699675 -58.05403681 129.02051287 -61 129 C-59.67444672 124.77171774 -58.0712789 120.85982699 -56.12890625 116.87890625 C-55.27594971 115.12271973 -55.27594971 115.12271973 -54.40576172 113.33105469 C-53.79134638 112.07486723 -53.17692568 110.8186824 -52.5625 109.5625 C-51.92680956 108.25574612 -51.2915609 106.94877725 -50.65673828 105.64160156 C-49.69274079 103.65664726 -48.72853163 101.67180038 -47.76300049 99.68759155 C-44.94096722 93.8874483 -42.15211806 88.07178023 -39.375 82.25 C-38.48578798 80.38796787 -37.59646477 78.52598884 -36.70703125 76.6640625 C-36.26568848 75.74012695 -35.8243457 74.81619141 -35.36962891 73.86425781 C-32.93935012 68.7818994 -30.500916 63.70345812 -28.0625 58.625 C-27.56492187 57.58859375 -27.06734375 56.5521875 -26.5546875 55.484375 C-24.01247479 50.18974077 -21.46937511 44.89553333 -18.92578125 39.6015625 C-12.59065148 26.41355219 -6.28306045 13.21290654 0 0 Z M14 20 C13.67950684 20.69109863 13.35901367 21.38219727 13.02880859 22.09423828 C11.7668486 24.81501868 10.50450842 27.5356224 9.24203491 30.25616455 C8.37234023 32.13073297 7.50318269 34.00554984 6.6340332 35.88037109 C3.44693231 42.7515854 0.24473827 49.61533387 -2.98046875 56.46875 C-3.94434658 58.5205593 -4.90796442 60.57249051 -5.871521 62.62445068 C-6.49876312 63.95798606 -7.12738487 65.29087339 -7.75738525 66.62310791 C-8.6398181 68.48935503 -9.51762412 70.35771411 -10.39453125 72.2265625 C-10.89831299 73.29471191 -11.40209473 74.36286133 -11.92114258 75.46337891 C-13.13046148 77.84732311 -13.13046148 77.84732311 -13 80 C5.15 80 23.3 80 42 80 C41.27296758 76.36483788 40.77529747 74.16751179 39.25341797 70.99853516 C38.89569305 70.24649811 38.53796814 69.49446106 38.16940308 68.71963501 C37.78092194 67.91754608 37.3924408 67.11545715 36.9921875 66.2890625 C36.38662521 65.02127457 36.38662521 65.02127457 35.76882935 63.72787476 C34.47615765 61.02435437 33.17582793 58.32460395 31.875 55.625 C30.60116244 52.96834639 29.32891392 50.31093564 28.05670166 47.65350342 C27.22615027 45.919156 26.39489905 44.18514354 25.56292725 42.45147705 C21.98622228 34.99337357 18.47662229 27.50520316 15 20 C14.67 20 14.34 20 14 20 Z " fill="#D86A4A" transform="translate(799,2)"/>
<path d="M0 0 C9.9 0 19.8 0 30 0 C43 27.08333333 56 54.16666667 69 81.25 C69.49588623 82.28294189 69.99177246 83.31588379 70.50268555 84.38012695 C71.49422138 86.44613647 72.48527622 88.51237691 73.47583008 90.57885742 C76.10126381 96.05431697 78.7369684 101.52454296 81.38671875 106.98828125 C81.93908203 108.13039063 82.49144531 109.2725 83.06054688 110.44921875 C84.1225938 112.64471071 85.1875673 114.83879005 86.25585938 117.03125 C86.73216797 118.01738281 87.20847656 119.00351563 87.69921875 120.01953125 C88.12033936 120.88682861 88.54145996 121.75412598 88.9753418 122.64770508 C90 125 90 125 91 129 C82.75 129 74.5 129 66 129 C53 103.22033898 53 103.22033898 53 100 C27.92 100 2.84 100 -23 100 C-23.33 101.65 -23.66 103.3 -24 105 C-24.76977628 106.85112867 -25.59751359 108.67877816 -26.46875 110.484375 C-26.95730469 111.50144531 -27.44585938 112.51851563 -27.94921875 113.56640625 C-28.46097656 114.61699219 -28.97273438 115.66757813 -29.5 116.75 C-30.26763672 118.34908203 -30.26763672 118.34908203 -31.05078125 119.98046875 C-34.85040794 127.85040794 -34.85040794 127.85040794 -36 129 C-37.85369611 129.08737645 -39.71067541 129.10698153 -41.56640625 129.09765625 C-42.69111328 129.09443359 -43.81582031 129.09121094 -44.97460938 129.08789062 C-46.15861328 129.07951172 -47.34261719 129.07113281 -48.5625 129.0625 C-49.75037109 129.05798828 -50.93824219 129.05347656 -52.16210938 129.04882812 C-55.10812226 129.03699675 -58.05403681 129.02051287 -61 129 C-57.09640946 119.03411064 -52.42842907 109.48272315 -47.70410156 99.88720703 C-45.44929563 95.30718425 -43.20608004 90.72148398 -40.9609375 86.13671875 C-40.52311951 85.24350922 -40.08530151 84.35029968 -39.63421631 83.43002319 C-35.1137212 74.20342851 -30.68150101 64.93617221 -26.26855469 55.65771484 C-24.89742763 52.78510339 -23.51618165 49.9175166 -22.1328125 47.05078125 C-14.60098956 31.43563692 -7.27522823 15.73663498 0 0 Z M14 21 C2.66440442 44.99127546 2.66440442 44.99127546 -8.5 69.0625 C-9.19283081 70.56683594 -9.19283081 70.56683594 -9.8996582 72.1015625 C-10.52167114 73.46087891 -10.52167114 73.46087891 -11.15625 74.84765625 C-11.51525391 75.63148682 -11.87425781 76.41531738 -12.24414062 77.22290039 C-13.06523338 78.8315089 -13.06523338 78.8315089 -13 80 C5.48 80 23.96 80 43 80 C37.60762759 67.59419572 37.60762759 67.59419572 31.95703125 55.31640625 C31.62128586 54.60572495 31.28554047 53.89504364 30.93962097 53.16282654 C29.89939621 50.96169281 28.85619025 48.76199232 27.8125 46.5625 C26.42180707 43.62694882 25.03251961 40.69073715 23.64453125 37.75390625 C23.319617 37.06664459 22.99470276 36.37938293 22.65994263 35.67129517 C20.36809143 30.81135975 18.14885373 25.92515054 16 21 C15.34 21 14.68 21 14 21 Z " fill="#D86A4A" transform="translate(1174,2)"/>
<path d="M0 0 C9.9 0 19.8 0 30 0 C53.0473906 47.05085124 53.0473906 47.05085124 61.75927734 65.39355469 C64.13933086 70.39344673 66.53999713 75.38345878 68.9375 80.375 C69.43137207 81.40471924 69.92524414 82.43443848 70.43408203 83.49536133 C73.04129173 88.93009037 75.65710214 94.36047347 78.28515625 99.78515625 C78.82342041 100.89906738 79.36168457 102.01297852 79.91625977 103.16064453 C80.9387454 105.27622989 81.96379031 107.39058111 82.99194336 109.50341797 C83.45866455 110.47037598 83.92538574 111.43733398 84.40625 112.43359375 C84.81166016 113.26947021 85.21707031 114.10534668 85.63476562 114.96655273 C87.56294989 119.25083196 89.25513787 123.63784466 91 128 C82.75 128 74.5 128 66 128 C59 114 59 114 52 100 C27.58 100 3.16 100 -22 100 C-28.435 113.86 -28.435 113.86 -35 128 C-43.58 128 -52.16 128 -61 128 C-50.91874615 106.6806271 -40.72525083 85.41559783 -30.51611328 64.15722656 C-29.00913633 61.01902594 -27.50253409 57.88064575 -25.99609375 54.7421875 C-25.50109375 53.7109375 -25.00609375 52.6796875 -24.49609375 51.6171875 C-23.50247685 49.5469361 -22.50898629 47.47662406 -21.515625 45.40625 C-18.93187852 40.02174946 -16.34518757 34.63869144 -13.75390625 29.2578125 C-13.21958984 28.14728516 -12.68527344 27.03675781 -12.13476562 25.89257812 C-11.12270465 23.78925141 -10.10975463 21.68635214 -9.09570312 19.58398438 C-8.40057617 18.13862305 -8.40057617 18.13862305 -7.69140625 16.6640625 C-7.29123291 15.83342285 -6.89105957 15.0027832 -6.47875977 14.14697266 C-4.2729522 9.45275777 -2.14624714 4.7217437 0 0 Z M15 20 C9.45603274 30.96786924 4.0764561 42.00624515 -1.18408203 53.11279297 C-2.39112587 55.65901707 -3.6036971 58.2025639 -4.81640625 60.74609375 C-5.59408521 62.38525767 -6.37144122 64.02457486 -7.1484375 65.6640625 C-7.50674652 66.41410553 -7.86505554 67.16414856 -8.23422241 67.93692017 C-8.56862335 68.64561249 -8.90302429 69.35430481 -9.24755859 70.08447266 C-9.5387558 70.69795563 -9.829953 71.3114386 -10.12997437 71.94351196 C-11.24073462 74.56902676 -12.0984948 77.29548439 -13 80 C5.48 80 23.96 80 43 80 C41.44982331 75.34946993 39.72634264 71.07341631 37.62109375 66.6796875 C37.29266983 65.98665527 36.96424591 65.29362305 36.62586975 64.57958984 C35.92629687 63.10380708 35.22528761 61.62870448 34.52294922 60.15423584 C32.70436696 56.33556079 30.89683012 52.51167288 29.08984375 48.6875 C28.73493866 47.93677216 28.38003357 47.18604431 28.01437378 46.41256714 C23.88581218 37.6638371 19.91272503 28.84710605 16 20 C15.67 20 15.34 20 15 20 Z " fill="#BCBCBC" transform="translate(939,166)"/>
<path d="M0 0 C42.57 0 85.14 0 129 0 C129 6.93 129 13.86 129 21 C111.51 21 94.02 21 76 21 C76 56.64 76 92.28 76 129 C68.08 129 60.16 129 52 129 C52 93.36 52 57.72 52 21 C34.84 21 17.68 21 0 21 C0 14.07 0 7.14 0 0 Z " fill="#D86949" transform="translate(1004,2)"/>
<path d="M0 0 C42.57 0 85.14 0 129 0 C129 6.93 129 13.86 129 21 C111.51 21 94.02 21 76 21 C76.01160156 28.71246094 76.02320313 36.42492187 76.03515625 44.37109375 C76.04026282 49.24283938 76.04507658 54.11458173 76.04882812 58.98632812 C76.05481728 66.72730185 76.0619195 74.4682638 76.07543945 82.20922852 C76.08626592 88.446703 76.09227632 94.68416487 76.09487724 100.92164803 C76.09673193 103.30720277 76.10035336 105.69275679 76.10573006 108.0783062 C76.11293729 111.40695591 76.11399108 114.73555279 76.11352539 118.06420898 C76.11712067 119.06114273 76.12071594 120.05807648 76.12442017 121.08522034 C76.1230455 121.98690948 76.12167084 122.88859863 76.12025452 123.81761169 C76.12117631 124.6057447 76.1220981 125.3938777 76.12304783 126.20589352 C76 128 76 128 75 129 C73.37742456 129.0991657 71.75060169 129.13079777 70.125 129.1328125 C69.14015625 129.13410156 68.1553125 129.13539063 67.140625 129.13671875 C66.10421875 129.13285156 65.0678125 129.12898437 64 129.125 C62.96359375 129.12886719 61.9271875 129.13273438 60.859375 129.13671875 C59.87453125 129.13542969 58.8896875 129.13414062 57.875 129.1328125 C56.96492187 129.13168457 56.05484375 129.13055664 55.1171875 129.12939453 C53 129 53 129 52 128 C51.90456905 126.60856311 51.87811425 125.21231633 51.87974548 123.81761169 C51.87837082 122.91592255 51.87699615 122.0142334 51.87557983 121.08522034 C51.88097275 119.58981972 51.88097275 119.58981972 51.88647461 118.06420898 C51.88632858 117.02043091 51.88618256 115.97665283 51.8860321 114.90124512 C51.88673174 111.43284057 51.89452647 107.96448897 51.90234375 104.49609375 C51.90420775 102.09855682 51.90563174 99.7010195 51.90663147 97.30348206 C51.91045806 90.97904416 51.92028954 84.65462906 51.93133545 78.3302002 C51.9433404 70.74948854 51.94795114 63.16876928 51.95378876 55.58805084 C51.96350122 44.05868468 51.98265681 32.52936859 52 21 C34.84 21 17.68 21 0 21 C0 14.07 0 7.14 0 0 Z " fill="#B0B1B1" transform="translate(769,166)"/>
<path d="M0 0 C42.57 0 85.14 0 129 0 C129 6.93 129 13.86 129 21 C111.51 21 94.02 21 76 21 C76 56.64 76 92.28 76 129 C68.41 129 60.82 129 53 129 C53 93.36 53 57.72 53 21 C35.51 21 18.02 21 0 21 C0 14.07 0 7.14 0 0 Z " fill="#D86949" transform="translate(870,2)"/>
<path d="M0 0 C7.92 0 15.84 0 24 0 C24 35.64 24 71.28 24 108 C52.38 108 80.76 108 110 108 C110 114.6 110 121.2 110 128 C73.7 128 37.4 128 0 128 C0 85.76 0 43.52 0 0 Z " fill="#C6C7C7" transform="translate(1044,166)"/>
<path d="M0 0 C7.92 0 15.84 0 24 0 C24 42.57 24 85.14 24 129 C16.08 129 8.16 129 0 129 C0 86.43 0 43.86 0 0 Z " fill="#D86949" transform="translate(1567,2)"/>
</svg>
